<svg width="19" height="19" viewBox="0 0 19 19" fill="none" xmlns="http://www.w3.org/2000/svg">
<path d="M7.35631 2.56523L9.27274 0.648804M5.43988 13.1056L13.1056 5.43988M9.27274 17.8967L11.1892 15.9802M13.5847 15.9802C14.22 15.9802 14.8294 15.7279 15.2786 15.2786C15.7279 14.8294 15.9802 14.22 15.9802 13.5847C15.9802 12.9494 15.7279 12.3401 15.2786 11.8908C14.8294 11.4416 14.22 11.1892 13.5847 11.1892C12.9494 11.1892 12.3401 11.4416 11.8908 11.8908C11.4416 12.3401 11.1892 12.9494 11.1892 13.5847C11.1892 14.22 11.4416 14.8294 11.8908 15.2786C12.3401 15.7279 12.9494 15.9802 13.5847 15.9802V15.9802ZM4.96077 7.35631C5.59611 7.35631 6.20542 7.10392 6.65467 6.65467C7.10392 6.20542 7.35631 5.59611 7.35631 4.96077C7.35631 4.32544 7.10392 3.71612 6.65467 3.26687C6.20542 2.81762 5.59611 2.56523 4.96077 2.56523C4.32544 2.56523 3.71612 2.81762 3.26687 3.26687C2.81762 3.71612 2.56523 4.32544 2.56523 4.96077C2.56523 5.59611 2.81762 6.20542 3.26687 6.65467C3.71612 7.10392 4.32544 7.35631 4.96077 7.35631V7.35631ZM3.04434 17.8967C3.67968 17.8967 4.28899 17.6443 4.73824 17.195C5.18749 16.7458 5.43988 16.1365 5.43988 15.5011C5.43988 14.8658 5.18749 14.2565 4.73824 13.8072C4.28899 13.358 3.67968 13.1056 3.04434 13.1056C2.40901 13.1056 1.79969 13.358 1.35044 13.8072C0.90119 14.2565 0.648804 14.8658 0.648804 15.5011C0.648804 16.1365 0.90119 16.7458 1.35044 17.195C1.79969 17.6443 2.40901 17.8967 3.04434 17.8967V17.8967ZM15.5011 5.43988C16.1365 5.43988 16.7458 5.18749 17.195 4.73824C17.6443 4.28899 17.8967 3.67968 17.8967 3.04434C17.8967 2.40901 17.6443 1.79969 17.195 1.35044C16.7458 0.90119 16.1365 0.648804 15.5011 0.648804C14.8658 0.648804 14.2565 0.90119 13.8072 1.35044C13.358 1.79969 13.1056 2.40901 13.1056 3.04434C13.1056 3.67968 13.358 4.28899 13.8072 4.73824C14.2565 5.18749 14.8658 5.43988 15.5011 5.43988Z" stroke="#FAFAFF" stroke-width="1.29762" stroke-linecap="round" stroke-linejoin="round"/>
</svg>
