<svg width="16" height="16" viewBox="0 0 16 16" fill="none" xmlns="http://www.w3.org/2000/svg">
<path d="M10.6516 2.06295C10.4563 1.86769 10.1398 1.86769 9.94449 2.06295C9.74923 2.25821 9.74923 2.5748 9.94449 2.77006L13.48 6.30559C13.6753 6.50085 13.9919 6.50085 14.1871 6.30559C14.3824 6.11033 14.3824 5.79375 14.1871 5.59848L10.6516 2.06295Z" fill="#88B702"/>
<path d="M6.40896 10.5482C6.60422 10.353 6.60422 10.0364 6.40896 9.84113C6.21369 9.64586 5.89711 9.64586 5.70185 9.84113L3.58053 11.9624C3.38527 12.1577 3.38527 12.4743 3.58053 12.6696C3.77579 12.8648 4.09237 12.8648 4.28764 12.6696L6.40896 10.5482Z" fill="#88B702"/>
<path d="M10.2511 3.78379C9.89922 3.4319 9.34213 3.39231 8.94401 3.6909L6.59583 5.45203L5.14118 5.45203C4.24637 5.45203 3.80816 6.53323 4.43537 7.16043L9.08963 11.8147C9.71684 12.4419 10.798 12.0037 10.798 11.1089V9.65423L12.5592 7.30605C12.8578 6.90793 12.8182 6.35084 12.4663 5.99895L10.2511 3.78379Z" fill="#88B702"/>
</svg>
