<svg width="20" height="20" viewBox="0 0 20 20" fill="none" xmlns="http://www.w3.org/2000/svg">
<g clip-path="url(#clip0_449_1336)">
<path d="M13.5334 6.4665L12.03 10.9757C11.9482 11.2212 11.8103 11.4442 11.6274 11.6272C11.4444 11.8102 11.2213 11.948 10.9759 12.0298L6.46669 13.5332L7.97002 9.024C8.05184 8.77852 8.18969 8.55546 8.37267 8.37248C8.55564 8.18951 8.7787 8.05166 9.02419 7.96984L13.5334 6.4665Z" stroke="#88B702" stroke-width="1.6" stroke-linecap="round" stroke-linejoin="round"/>
<path d="M10 18.3332C14.6024 18.3332 18.3334 14.6022 18.3334 9.99984C18.3334 5.39746 14.6024 1.6665 10 1.6665C5.39765 1.6665 1.66669 5.39746 1.66669 9.99984C1.66669 14.6022 5.39765 18.3332 10 18.3332Z" stroke="#88B702" stroke-width="1.6" stroke-linecap="round" stroke-linejoin="round"/>
</g>
<defs>
<clipPath id="clip0_449_1336">
<rect width="20" height="20" fill="white"/>
</clipPath>
</defs>
</svg>
