<svg width="22" height="16" viewBox="0 0 22 16" fill="none" xmlns="http://www.w3.org/2000/svg">
<path d="M1.03951 0.001544H20.0658C20.1976 -0.0019722 20.3288 0.020956 20.4516 0.0689735C20.5743 0.11699 20.6863 0.189124 20.7807 0.281114C20.8751 0.373102 20.9502 0.483082 21.0014 0.60456C21.0527 0.726037 21.079 0.856548 21.079 0.988387V13.5673C21.0773 13.8726 21.0152 14.1744 20.8964 14.4556C20.7776 14.7368 20.6044 14.9917 20.3868 15.2057C20.1691 15.4197 19.9113 15.5885 19.6281 15.7025C19.345 15.8165 19.0421 15.8734 18.7369 15.87H10.5527C10.2909 15.87 10.0399 15.766 9.85486 15.5809C9.66979 15.3959 9.56582 15.1449 9.56582 14.8831C9.56582 14.6214 9.66979 14.3704 9.85486 14.1853C10.0399 14.0003 10.2909 13.8963 10.5527 13.8963H18.7369C18.8254 13.8963 18.9105 13.8621 18.9742 13.8008C19.038 13.7394 19.0756 13.6558 19.079 13.5673V1.97523H1.97372V7.93576C1.97372 8.19748 1.86975 8.44849 1.68468 8.63356C1.49961 8.81863 1.2486 8.9226 0.986874 8.9226C0.725147 8.9226 0.474142 8.81863 0.289072 8.63356C0.104004 8.44849 3.24249e-05 8.19748 3.24249e-05 7.93576V0.988387C-0.00015831 0.854243 0.0270023 0.721468 0.079855 0.598174C0.132706 0.47488 0.210138 0.363656 0.307423 0.271297C0.404709 0.178937 0.519802 0.10738 0.645674 0.0609999C0.771545 0.0146198 0.905554 -0.00561047 1.03951 0.001544Z" fill="#D9D9D9"/>
<path d="M10.4475 4.36976C10.5786 4.37045 10.7084 4.39729 10.829 4.44871C11.0091 4.52229 11.1629 4.64809 11.2708 4.80991C11.3787 4.97172 11.4356 5.16213 11.4343 5.3566V10.3698C11.4343 10.6315 11.3303 10.8825 11.1453 11.0676C10.9602 11.2526 10.7092 11.3566 10.4475 11.3566C10.1857 11.3566 9.93473 11.2526 9.74966 11.0676C9.56459 10.8825 9.46062 10.6315 9.46062 10.3698V7.73818L4.19746 13.0013C4.10711 13.0983 3.99817 13.1761 3.87711 13.23C3.75606 13.2839 3.62539 13.3129 3.49288 13.3153C3.36038 13.3176 3.22876 13.2932 3.10588 13.2436C2.983 13.194 2.87138 13.1201 2.77767 13.0264C2.68396 12.9327 2.61009 12.8211 2.56045 12.6982C2.51082 12.5753 2.48645 12.4437 2.48878 12.3112C2.49112 12.1787 2.52012 12.048 2.57406 11.9269C2.628 11.8059 2.70577 11.6969 2.80272 11.6066L9.73693 4.67239C9.82894 4.57677 9.93928 4.50068 10.0614 4.44869C10.1834 4.39669 10.3148 4.36984 10.4475 4.36976Z" fill="#D9D9D9"/>
<path d="M5.43433 4.37006H10.4475C10.7092 4.37006 10.9602 4.47404 11.1453 4.6591C11.3304 4.84417 11.4343 5.09518 11.4343 5.35691C11.4343 5.61863 11.3304 5.86964 11.1453 6.05471C10.9602 6.23978 10.7092 6.34375 10.4475 6.34375H5.43433C5.1726 6.34375 4.92159 6.23978 4.73652 6.05471C4.55146 5.86964 4.44749 5.61863 4.44749 5.35691C4.44749 5.09518 4.55146 4.84417 4.73652 4.6591C4.92159 4.47404 5.1726 4.37006 5.43433 4.37006Z" fill="#D9D9D9"/>
</svg>
