<svg width="20" height="20" viewBox="0 0 20 20" fill="none" xmlns="http://www.w3.org/2000/svg">
<g clip-path="url(#clip0_335_2675)">
<path d="M6.25 16.25H2.5C1.125 16.25 0 15.125 0 13.75V2.5C0 1.125 1.125 0 2.5 0H17.5C18.875 0 20 1.125 20 2.5V13.75C20 15.125 18.875 16.25 17.5 16.25H12.375L6.25 20V16.25ZM15 12.5V11.25C15 9.625 11.625 8.75 10 8.75C8.375 8.75 5 9.625 5 11.25V12.5H15ZM10 2.5C8.625 2.5 7.5 3.625 7.5 5C7.5 6.375 8.625 7.5 10 7.5C11.375 7.5 12.5 6.375 12.5 5C12.5 3.625 11.375 2.5 10 2.5Z" fill="white"/>
</g>
<defs>
<clipPath id="clip0_335_2675">
<rect width="20" height="20" fill="white"/>
</clipPath>
</defs>
</svg>
