<svg width="20" height="20" viewBox="0 0 20 20" fill="none" xmlns="http://www.w3.org/2000/svg">
<path d="M16.25 2.5H3.75C1.67893 2.5 0 4.17893 0 6.25V13.75C0 15.8211 1.67893 17.5 3.75 17.5H16.25C18.3211 17.5 20 15.8211 20 13.75V6.25C20 4.17893 18.3211 2.5 16.25 2.5Z" fill="#88B702"/>
<path d="M5 17.5H16.25C18.3211 17.5 20 15.8211 20 13.75V6.25C20 4.17894 18.3211 2.5 16.25 2.5H11.75L5 17.5Z" fill="#88B702"/>
<path d="M11.25 15C12.6307 15 13.75 13.8807 13.75 12.5C13.75 11.1193 12.6307 10 11.25 10C9.86929 10 8.75 11.1193 8.75 12.5C8.75 13.8807 9.86929 15 11.25 15Z" fill="white"/>
<path d="M15 15C16.3807 15 17.5 13.8807 17.5 12.5C17.5 11.1193 16.3807 10 15 10C13.6193 10 12.5 11.1193 12.5 12.5C12.5 13.8807 13.6193 15 15 15Z" fill="white"/>
<path d="M7.5 5H3.75C3.05964 5 2.5 5.55964 2.5 6.25C2.5 6.94036 3.05964 7.5 3.75 7.5H7.5C8.19036 7.5 8.75 6.94036 8.75 6.25C8.75 5.55964 8.19036 5 7.5 5Z" fill="white"/>
</svg>
