<svg width="16" height="16" viewBox="0 0 16 16" fill="none" xmlns="http://www.w3.org/2000/svg">
<g clip-path="url(#clip0_335_2657)">
<path d="M3 4.99997V11C3 11.5523 3.44772 12 4 12H9C9.55228 12 10 11.5523 10 11V9.49997L12.2764 10.6382C12.6088 10.8044 13 10.5626 13 10.191V5.80899C13 5.4373 12.6088 5.19555 12.2764 5.36177L10 6.49997V4.99997C10 4.44768 9.55228 3.99997 9 3.99997H4C3.44772 3.99997 3 4.44768 3 4.99997Z" fill="white"/>
<path fill-rule="evenodd" clip-rule="evenodd" d="M2 0C0.895386 0 0 0.895447 0 2V14C0 15.1046 0.895386 16 2 16H14C15.1046 16 16 15.1046 16 14V2C16 0.895447 15.1046 0 14 0H2ZM14 2H2V14H14V2Z" fill="white"/>
</g>
<defs>
<clipPath id="clip0_335_2657">
<rect width="16" height="16" fill="white"/>
</clipPath>
</defs>
</svg>
